<?xml version="1.0" encoding="UTF-8"?>
<svg id="Layer_1" data-name="Layer 1" xmlns="http://www.w3.org/2000/svg" width="9.56in" height="7.5in" viewBox="0 0 688.16 540.22">
  <defs>
    <style>
      .cls-1 {
        stroke: #000;
        stroke-miterlimit: 10;
        stroke-width: 10px;
      }
    </style>
  </defs>
  <path class="cls-1" d="M401.47,247.97c-12.9-9.12-21.4,8.31-31.37,14.37,13.02,2.41,20.29-19.72,29.69-3.7,4.47,7.61,5.19,16.63,3.82,25.23-1.2,7.58-12.35,45.61-15.4,52.58-6.58,15.04-15.55.78-20.56-7.67-12.52-21.09-11.83-35.23.45-56.4-5.13-9.11-14.69,10.21-15.55,14.41-3.45,16.78,5.69,58.29,25.03,62.1,6.09,1.2,11.17,1.2,14.22-4.86,6.59-23.7,25.77-61.99,16.45-85.85-.67-1.72-5.65-9.42-6.77-10.21Z"/>
  <path class="cls-1" d="M549.43,317.25c.17-9.76-8.29-16.66-12.34-24.64-8.44-16.61-22.05-65.06-33.1-19.81-3.05,12.49-4.63,53.4-11.07,59.9-1.1,1.11-3.99,2.44-5.54,1.67-12.14-6.06-18.83-61.81-18.28-75.77-.54-2.31-3.95-4.54-5.63-3.34-5.16,3.7,1.09,44.49,2.87,52.1,9.16,39.16,33.72,48.96,40.87,2.66l6.25-48.76,19.14,39.83c5.13,5.64,7.37,17.26,16.83,16.15Z"/>
  <path class="cls-1" d="M154.97,338.21c10.87,4.62,8.6-6.65,6.44-13.43-8.08-25.28-31.24-51.53-43.55-74.43-5.3-9.87-9.72-29.12-15.09-36.9-11.41-16.52-18.75,30.38-13.89,33.89,10.84,7.83,2.19-16.02,10.08-19.1,4.39,22.53,21.07,40.75,32.36,60.65,8.38,14.75,14.91,28.6,21.67,43.96.8,1.81,5.96.39,1.99,5.36Z"/>
  <path class="cls-1" d="M14.97,338.23v-35c0-12.55,16.44-39.19,25.21-48.79,4.92-5.39,38.72-33.64,38.75-37.21,0-.76-2.94-3.42-4.9-2.97-6.25,1.43-34.07,35.97-43.11,40.92-16.51,18.24-25.03,47.62-24.03,72.14.36,8.9.75,19.96,12.01,15.86,7.25-2.64,38.06-27.31,44.13-33.9,14.1-15.31,18.22-34.14,27.98-52.04,1.01-6.85-5.9-.78-8.01,2.01-9.24,12.2-11.05,29.66-22.14,43.41-4.62,5.73-32.44,29.61-38.8,33.65-2.48,1.57-3.89,2.51-7.08,1.92Z"/>
  <g>
    <path class="cls-1" d="M298.61,288.89c-11.55-22.68-41.26-38.97-62.44-49.5-6.14-3.05-18.33-9.56-24.41-9.37-4.93.16-1.76,6.96.47,9.19,1.56,1.56,23.27,9.77,28.37,12.53,18.59,10.07,46.73,25.32,54.31,47.76,2.47,7.31,4.52,15.27,2.43,22.74-1.48,5.33-23.16,24.73-28.34,27.27-4.04,1.98-34.11,9.98-38.96,7.09-1.6.14-3.22.12-4.9-.13-.8-.12-1.59-.27-2.37-.43-1.13.47-2.71.74-4.97.64-1.53-.07-1.33-1.72-1.42-1.82h-.03c-2.48,1.15-6.33.31-6.51,5.07,19.16,7.31,46.35,6.64,64.4-2.79,1.5-.78,25.28-20.6,26.37-21.96,11.32-14.15,5.7-31.16-2-46.29Z"/>
    <path class="cls-1" d="M194.48,26.14c14.9,48.89,3.2,100.33,5.9,150,2.05,37.71,12.71,78.79,14.68,114.89.35,6.35-4.91,47.3-7.2,51.01-11.8,19.16-3.78-24.6-3.57-26.92,4.12-43.71-10.92-102.44-12.76-149.47-1.61-41.28,5.94-87.22,1.6-125.81l1.35-13.69Z"/>
  </g>
  <path class="cls-1" d="M593.48,172.64c-3.72.78-5.13,30.92,1.68,29.48,3.72-.78,5.13-30.92-1.68-29.48Z"/>
  <path class="cls-1" d="M680.75,209.1c-.56-.67-14.43-4.74-16.61-5.03-28.25-3.73-55.68,2.37-82.85-.12-8.52-.78-13.03-4.57-19.77-6.2-2.31-.56-7.08-.96-6.92,1.79.07,1.25,12.05,7.32,14.33,8.14,20.82,7.4,46.17,1.07,67.73,1.43,10.59.18,23.54,3.47,34.46,3.34l.99,5.32c3.93.9,11.37-5.38,8.64-8.66Z"/>
  <path class="cls-1" d="M599.53,410.37c2.36.47,4.17-.64,4.9-2.91,1.53-4.79-2.87-25.73-3.17-32.68-1.32-29.92-2.55-60.26-3.47-90.11-.58-18.78,2.95-49.4-.01-66.05-.41-2.32-1.6-4.86-4.29-4.34s-3.57,12.17-3.69,15.04c-1.35,32.59,1.66,65.79,2.87,98.55.87,23.4.15,46.97,1.67,70.35l5.16-1.73c-1.47,5.25-2.16,8.64.03,13.87Z"/>
</svg>