<?xml version="1.0" encoding="UTF-8"?>
<svg id="Layer_1" data-name="Layer 1" xmlns="http://www.w3.org/2000/svg" width="9.38in" height="7.5in" viewBox="0 0 675.36 540.22">
  <defs>
    <style>
      .cls-1 {
        stroke: #000;
        stroke-miterlimit: 10;
        stroke-width: 10px;
      }
    </style>
  </defs>
  <path class="cls-1" d="M465.34,188.18c-68.3,22.89-141.22,8.41-211.1,14.15-53.05,4.36-110.51,20.97-161.29,25.14-8.93.73-66.82-5.07-72.15-8.15-27.45-15.88,34.51-6.29,37.79-6.07,61.74,4.1,143.91-19.37,210.09-23.79,58.09-3.88,123.11,4.97,177.31-2.64l19.35,1.37Z"/>
  <g>
    <path class="cls-1" d="M7.11,211.18c-.54,4.97,3.14,6.74,6.45,9.36,26.23,20.79,90.56,48.5,124.18,56.46,3.23.77,12.98,5.76,13.92-1.2.56-4.16-1.28-7.64-5.36-9.08L7.11,211.18Z"/>
    <path class="cls-1" d="M133.91,143.02c-6.37-5.05-63.44,20.67-73.18,25.92-11.26,6.07-30.04,18.41-40.09,26.27-2.58,2.02-7.1,3.74-5.75,8.13,4.57,14.93,42.81-18.93,48.32-21.96,11.25-6.18,29.65-14.19,41.91-19.57,3.22-1.41,40.02-9.88,28.79-18.8Z"/>
  </g>
  <path class="cls-1" d="M649.46,325.26c-68.3,22.89-141.22,8.41-211.1,14.15-53.05,4.36-110.51,20.97-161.29,25.14-8.93.73-66.82-5.07-72.15-8.15-27.45-15.88,34.51-6.29,37.79-6.07,61.74,4.1,143.91-19.37,210.09-23.79,58.09-3.88,123.11,4.97,177.31-2.64l19.35,1.37Z"/>
  <g>
    <path class="cls-1" d="M191.23,348.26c-.54,4.97,3.14,6.74,6.45,9.36,26.23,20.79,90.56,48.5,124.18,56.46,3.23.77,12.98,5.76,13.92-1.2.56-4.16-1.28-7.64-5.36-9.08l-139.19-55.54Z"/>
    <path class="cls-1" d="M318.03,280.1c-6.37-5.05-63.44,20.67-73.18,25.92-11.26,6.07-30.04,18.41-40.09,26.27-2.58,2.02-7.1,3.74-5.75,8.13,4.57,14.93,42.81-18.93,48.32-21.96,11.25-6.18,29.65-14.19,41.91-19.57,3.22-1.41,40.02-9.88,28.79-18.8Z"/>
  </g>
</svg>