<?xml version="1.0" encoding="UTF-8"?>
<svg id="Layer_1" data-name="Layer 1" xmlns="http://www.w3.org/2000/svg" width="20.15in" height="7.43in" viewBox="0 0 1450.8 535.29">
  <defs>
    <style>
      .cls-1 {
        stroke: #1c1c1c;
      }

      .cls-1, .cls-2 {
        stroke-miterlimit: 10;
        stroke-width: 10px;
      }

      .cls-2 {
        stroke: #000;
      }
    </style>
  </defs>
  <path class="cls-2" d="M754.61,122.49c-4.3.9-5.93,35.63,1.94,33.98,4.3-.9,5.93-35.63-1.94-33.98Z"/>
  <path class="cls-2" d="M338.7,129.37l-14.98,70.98c5.47,48.09-10.61,103.47-.02,149.98,2.19,9.63,6.95,9.8,8.09.1,1.57-13.33-2.69-34.47-2.17-50.19,1.03-31.24,1.37-71.75,4.1-101.9.77-8.46,17.84-68.3,4.98-68.98Z"/>
  <path class="cls-2" d="M1341.76,219.33c.45-.37,4.13-9.33,4.23-10.97.24-4.13-2.11-8.13-2.17-12.04-.29-19.1-.07-45.14-4.45-63.55-.83-3.48-3.19-8.21-7.56-7.42l5.98,92.98c-.23,1.72,3.7,1.21,3.97.99Z"/>
  <path class="cls-1" d="M25.7,335.38l-9.56-106.56c-2.33-22.39,3.88-46.13,2.06-68.05-.42-5.05-1.12-21.48-8.95-19.01-6.74,2.12-.91,23.1-.86,28.95.45,54.05-4.73,107.12,6.73,161.15,2.12,10,5.84,21.13,13.1,6.87l-5.98-1.01c-.85-3.26,2.8-1.26,3.47-2.33Z"/>
  <path class="cls-2" d="M855.58,164.51c-.64-.77-16.69-5.47-19.22-5.8-32.69-4.3-64.43,2.73-95.86-.14-9.85-.9-15.07-5.27-22.87-7.15-2.68-.65-8.19-1.11-8,2.07.08,1.44,13.94,8.44,16.58,9.38,24.1,8.53,53.42,1.24,78.37,1.65,12.26.2,27.24,4,39.87,3.85l1.15,6.13c4.55,1.04,13.15-6.21,9.99-9.98Z"/>
  <path class="cls-2" d="M761.61,396.47c2.73.55,4.83-.73,5.67-3.35,1.78-5.52-3.32-29.66-3.67-37.66-1.53-34.48-2.95-69.45-4.02-103.85-.67-21.65,3.41-56.93-.01-76.12-.48-2.68-1.85-5.6-4.96-5s-4.13,14.03-4.27,17.33c-1.56,37.56,1.92,75.82,3.32,113.57,1,26.97.17,54.13,1.93,81.08l5.97-1.99c-1.71,6.05-2.5,9.95.04,15.99Z"/>
  <path class="cls-2" d="M1397.79,167.35l-15.07,11.91c-7.45,9.2-13.64,19.7-21.26,28.74-4.52,5.37-35.09,31.17-25.64,37.34,7.88,1.92,7.89-7.88,12.67-13.3,6.66-7.57,18.03-15.6,25.29-24.27,8.75-10.44,21.92-27.31,24-40.41Z"/>
  <path class="cls-2" d="M96.81,243.95c8.83-4.81,35.81-7.46,40.86-14.1s2.46-15.71-1.2-22.57c-1.72-3.23-15.85-19.46-18.53-21.46-4.53-3.37-11.43-3.17-14.94,1.35-5.45,7-20.38,42.46-23.73,52.27-8.55,25.04-22.88,100.12,20.42,98.58,9.31-.33,63.85-14.53,68.13-20.04.94-1.21-3.7-8.15-4.16-8.15-3.4,0-36.3,16.12-45.99,18.01-23.86,4.66-36.64.67-38.85-24.91-3.54-41.08,16.28-74.65,30.97-110.96,2.43-3.26,1.98-1.35,3.99-.01,5.86,3.87,20.01,19.34,20.37,26.6.05,1.04-1.15,8.96-1.49,9.28-.78.75-15.46,1.46-21.28,3.73-2.17.84-17.93,9.34-14.59,12.39Z"/>
  <path class="cls-2" d="M850.8,320.49c-5.98-6.6-16.51-41.35-16.28-50.45.35-13.91,19.77-28.51,19.6-31.95-.28-5.68-9.63-1.72-12.78,1.19-21.74,20.08-15.93,44.74-5.53,69.19,8.49,19.96,23.36,32.62,45.76,21.04,18.53-9.58,42.99-32.46,46.07-53.92,5.41-37.67-35.22-60.51-68.47-54.49-6.07,1.1-6.45,7.71-3.99,8.01,12.6,1.55,27.37-1.38,40.15,3.83,19.03,7.76,30.11,28.42,23.81,48.15-5.94,18.62-50.31,59.31-68.34,39.39Z"/>
  <path class="cls-2" d="M1443.79,359.33c1.35-1.51-.82-6.94-1.85-9.13-11.24-23.98-37.54-52.69-54.09-73.91-4.91-6.29-27.38-42.1-33.02-40.94-7.11,1.47,3.33,13.79,5.3,16.66,16.04,23.34,36.06,44.51,52.54,67.46,2.32,3.23,25.18,46.5,31.12,39.86Z"/>
  <path class="cls-2" d="M1349.79,245.33c-12.86-1.53-6.2,14.17-6,21.03,1.13,39.44-5.7,81.17-7.15,121-.31,8.64,7.86,8.11,9.15.96,1.51-8.37-.66-20.72.03-29.97,1.36-18.19,5.24-37.85,6.06-55.94.87-19.15-1.33-38.07-2.09-57.09Z"/>
  <path class="cls-2" d="M1036.18,196.67c.95.78,9.84,19.16,11.04,21.98,8.04,18.78,15.14,37.8,23.37,56.63,3.75,8.59,18.92,55.22,28.59,53.37,4.19-.8,1.91-3,1.1-5.01-8.71-21.55-19.07-42.41-28.41-63.64-6.05-13.73-21.52-60.75-32.51-67.48-3.96-2.42-8.53-3.43-12.12.17-15.15,23.28-40.05,48.81-48.47,75.51-4.18,13.25-4.28,28.98-8.58,42.43-3.47.48-1.89-4.55-1.97-6.97-.94-26.31-.74-58.23-4.19-83.83-.47-3.52-4.2-16.49-8.87-9.26l7.4,106.72c1.14,3.19,3.51,3.77,6.58,3.44,12.32-1.32,14.31-42.54,18.7-53.47,8.14-20.26,30.13-50.52,43.8-68.1.98-1.26,1.29-5.19,4.54-2.5Z"/>
  <path class="cls-2" d="M532.93,309.48c-.24-.24,2.11-3.87,1.7-6.53-1.17-7.77-40.68-53.31-48.49-63.63-5.52-7.29-31.13-49.71-38.18-49.78-4.62-.04-5.45,11.04-4.89,14.88,1.95,13.43.48,34.79-2.61,49.58-4.05,19.46-20.38,50.99-33.37,66.13-1.7,1.98-5.66,1.96-8.11,3.37-5.65-28.91-11.85-65.51,2.36-92.63,6.08-11.6,17.06-19.27,21.61-31.37-11.53-1.63-12.37,9.76-17.2,15.78-3.22,4.02-7.13,4.7-10.85,11.15-12.07,20.93-11.33,64.57-5.39,87.5,3.89,15,10.66,20.52,23.26,8.36,15.25-14.72,28.96-41.96,33.59-62.41,3.87-17.06,7.52-37.3,4.62-54.39l20.43,26.54c11.62,23.26,31.17,40.79,46.37,61.63,7.45,10.22,17.74,24.35,21.2,35.81,5.17-1.6,4.88-10.44,3.59-14.61-1.9-6.14-9.05-4.83-9.64-5.41Z"/>
  <path class="cls-2" d="M1294.83,307.57c15.36-3.87-3.66-31.69-9.2-39.82-12.75-18.73-50.64-59.8-70.12-69.87-13.04-6.74-14.04,10.28-12.69,11.69,3.78,3.93,6.23-5.19,8.96-3.97,33.45,28.28,67.45,60.15,83.06,101.99Z"/>
  <path class="cls-2" d="M1200.81,214.57c-1.55,5.41,0,26.36,0,34,0,16.4-26,58.19-38.02,69.98-10.71,10.51-26.93,18.91-27.3-3.59-.32-19.64,20.52-55.31,31.67-72.03,5.2-7.79,21.54-23.83,23.62-30.4,1.38-4.36-3.81-3.59-6.01-2s-4.56,8.03-7.14,10.86c-19.37,21.2-49.66,63.41-48.96,93.2.37,15.84,10.37,25.36,25.55,17.37,18.37-9.67,47.38-53.88,51.71-74.28,1.51-7.09,6.15-44.76-.14-46.1-1.78-.38-4.6,1.71-4.97,2.99Z"/>
  <path class="cls-2" d="M220.85,301.97c3.48.7,4.96-1.79,7.03-3.95,16.38-17.2,40.1-60.87,47.89-84.11.75-2.24,4.91-8.8.05-9.91-2.9-.66-5.48.41-6.76,3.2l-48.2,94.78Z"/>
  <path class="cls-2" d="M180.85,207.99c-3.98,4.17,10.52,46.16,13.6,53.38,3.56,8.35,11.08,22.41,15.98,30.02,1.26,1.95,2.18,5.25,5.37,4.59,10.84-2.27-10.62-31.47-12.4-35.56-3.64-8.35-8.12-21.86-11.13-30.87-.79-2.37-4.41-28.92-11.43-21.55Z"/>
  <path class="cls-2" d="M111.44,514.57c28.85-51.92,54.08-109.48,85.05-161.93,8.08-13.69,26.2-30.96,31.38-42.65,1.35-3.04-.52-6.03-2.04-5.97-3.08.12-27.79,29.82-31.05,34.91-32.2,50.24-69.36,121.13-91.5,176.5-.81,2.03-8.44,25.62-.48,18.54,2.89-2.57,6.88-16.24,8.64-19.4Z"/>
</svg>